<svg xmlns="http://www.w3.org/2000/svg" viewBox="0 0 24 24">
  <path fill="#4285F4" d="M21.35 12.18c0-.71-.06-1.4-.18-2.07H12v3.91h5.24a4.48 4.48 0 0 1-1.94 2.94v2.54h3.14c1.84-1.69 2.91-4.19 2.91-7.32Z"/>
  <path fill="#34A853" d="M12 21.7c2.62 0 4.82-.87 6.43-2.2l-3.14-2.54c-.87.58-1.98.93-3.29.93-2.53 0-4.67-1.71-5.44-4.01H3.31v2.62A9.7 9.7 0 0 0 12 21.7Z"/>
  <path fill="#FBBC05" d="M6.56 13.88A5.83 5.83 0 0 1 6.25 12c0-.65.11-1.28.31-1.88V7.5H3.31A9.7 9.7 0 0 0 2.3 12c0 1.61.39 3.13 1.01 4.5l3.25-2.62Z"/>
  <path fill="#EA4335" d="M12 6.11c1.43 0 2.71.49 3.72 1.45l2.79-2.79A9.35 9.35 0 0 0 12 2.3a9.7 9.7 0 0 0-8.69 5.2l3.25 2.62c.77-2.3 2.91-4.01 5.44-4.01Z"/>
</svg>
